<?xml version="1.0" standalone="no"?><!DOCTYPE svg PUBLIC "-//W3C//DTD SVG 1.1//EN" "http://www.w3.org/Graphics/SVG/1.1/DTD/svg11.dtd"><svg t="1647013421450" class="icon" viewBox="0 0 1024 1024" version="1.1" xmlns="http://www.w3.org/2000/svg" p-id="11686" xmlns:xlink="http://www.w3.org/1999/xlink" width="200" height="200"><defs><style type="text/css"></style></defs><path d="M764.928 112.170667a42.666667 42.666667 0 0 0-55.466667-23.765334L183.850667 298.666667H85.333333a42.666667 42.666667 0 0 0-42.666666 42.666666v128a42.666667 42.666667 0 0 0 42.666666 42.666667c22.912 0 44.416 7.68 59.648 21.205333 14.464 12.842667 25.685333 33.024 25.685334 64.128 0 31.104-11.221333 51.285333-25.685334 64.128C129.749333 674.986667 108.245333 682.666667 85.333333 682.666667a42.666667 42.666667 0 0 0-42.666666 42.666666v128a42.666667 42.666667 0 0 0 42.666666 42.666667h853.333334a42.666667 42.666667 0 0 0 42.666666-42.666667v-128a42.666667 42.666667 0 0 0-42.666666-42.666666c-17.92 0-39.338667-9.344-57.045334-27.989334-17.408-18.432-28.288-42.922667-28.288-68.010666 0-44.16 37.290667-74.666667 85.333334-74.666667a42.666667 42.666667 0 0 0 42.666666-42.666667V341.333333a42.666667 42.666667 0 0 0-42.666666-42.666666h-99.114667L765.013333 112.170667zM809.301333 384H896v47.744c-66.389333 15.786667-128 68.266667-128 154.922667 0 49.578667 21.12 94.421333 51.712 126.677333 20.608 21.76 47.018667 39.253333 76.288 48.213333V810.666667H128v-47.616a169.301333 169.301333 0 0 0 73.685333-37.845334C235.221333 695.381333 256 651.562667 256 597.333333s-20.778667-98.048-54.314667-127.872A169.301333 169.301333 0 0 0 128 431.658667V384h681.301333z m-61.653333-85.333333h-334.08l288-115.2 46.08 115.2z" p-id="11687"></path><path d="M812.074667 384H128v47.658667c26.624 6.314667 52.224 18.730667 73.685333 37.802666C235.221333 499.285333 256 543.104 256 597.333333s-20.778667 98.048-54.314667 127.872A169.301333 169.301333 0 0 1 128 763.050667V810.666667h768v-49.152a178.090667 178.090667 0 0 1-76.288-48.170667C789.12 681.088 768 636.245333 768 586.666667c0-86.656 61.610667-139.136 128-154.922667V384h-83.925333zM320 541.482667a42.666667 42.666667 0 0 1 42.666667-42.666667h128a42.666667 42.666667 0 1 1 0 85.333333h-128a42.666667 42.666667 0 0 1-42.666667-42.666666z m42.666667 85.333333h298.666666a42.666667 42.666667 0 1 1 0 85.333333h-298.666666a42.666667 42.666667 0 1 1 0-85.333333z" p-id="11688"></path></svg>